<?xml version="1.0" encoding="iso-8859-1"?>
<!-- Generator: Adobe Illustrator 18.0.0, SVG Export Plug-In . SVG Version: 6.00 Build 0)  -->
<!DOCTYPE svg PUBLIC "-//W3C//DTD SVG 1.1//EN" "http://www.w3.org/Graphics/SVG/1.1/DTD/svg11.dtd">
<svg version="1.1" id="Capa_1" xmlns="http://www.w3.org/2000/svg" xmlns:xlink="http://www.w3.org/1999/xlink" x="0px" y="0px"
	 viewBox="0 0 297 297" style="enable-background:new 0 0 297 297;" xml:space="preserve">
<g>
	<path d="M294.075,5.96c-2.079-2.098-4.974-3.181-7.914-2.966l-46.357,3.39c-5.564,0.407-9.745,5.247-9.339,10.812
		c0.406,5.565,5.249,9.727,10.812,9.338l19.262-1.409l-67.86,67.948L113.759,26.24c-4.011-3.398-9.956-3.151-13.672,0.565
		L2.959,123.934c-3.945,3.945-3.945,10.342,0,14.287c1.973,1.972,4.558,2.959,7.144,2.959s5.17-0.986,7.143-2.959l90.552-90.553
		l78.925,66.837c4.012,3.4,9.961,3.15,13.676-0.57l74.159-74.255l-1.532,18.499c-0.461,5.56,3.674,10.44,9.234,10.901
		c0.284,0.024,0.565,0.035,0.845,0.035c5.202-0.001,9.62-3.993,10.057-9.269l3.804-45.944C297.209,10.96,296.154,8.059,294.075,5.96
		z"/>
	<path d="M90.107,121.744c-3.774-1.562-8.12-0.698-11.01,2.19l-41.976,41.977c-1.894,1.895-2.959,4.464-2.959,7.144v110.877
		c0,5.579,4.523,10.102,10.102,10.102H86.24c5.579,0,10.102-4.523,10.102-10.102V131.077
		C96.343,126.991,93.881,123.308,90.107,121.744z"/>
	<path d="M135.363,123.934c-2.889-2.889-7.233-3.752-11.01-2.19c-3.774,1.564-6.236,5.247-6.236,9.334v152.854
		c0,5.579,4.523,10.102,10.102,10.102h41.977c5.579,0,10.102-4.523,10.102-10.102V173.055c0-2.679-1.064-5.248-2.959-7.143
		L135.363,123.934z"/>
	<path d="M258.016,121.744c-3.776-1.562-8.121-0.698-11.01,2.19l-41.977,41.978c-1.894,1.895-2.959,4.464-2.959,7.143v110.876
		c0,5.579,4.523,10.102,10.102,10.102h41.977c5.579,0,10.102-4.523,10.102-10.102V131.077
		C264.252,126.991,261.791,123.308,258.016,121.744z"/>
</g>
<g>
</g>
<g>
</g>
<g>
</g>
<g>
</g>
<g>
</g>
<g>
</g>
<g>
</g>
<g>
</g>
<g>
</g>
<g>
</g>
<g>
</g>
<g>
</g>
<g>
</g>
<g>
</g>
<g>
</g>
</svg>
